<svg xmlns="http://www.w3.org/2000/svg" xmlns:xlink="http://www.w3.org/1999/xlink" contentStyleType="text/css" data-diagram-type="DESCRIPTION" height="1138px" preserveAspectRatio="none" style="width:995px;height:1138px;background:#FFFFFF;" version="1.1" viewBox="0 0 995 1138" width="995px" zoomAndPan="magnify"><defs/><g><!--cluster CI/CD Pipeline (GitHub)--><g class="cluster" data-entity="CI.CD Pipeline .GitHub." data-source-line="8" data-uid="ent0005" id="cluster_CI.CD Pipeline .GitHub."><rect fill="none" height="507" rx="2.5" ry="2.5" style="stroke:#181818;stroke-width:1;" width="200" x="7" y="144.5"/><text fill="#000000" font-family="sans-serif" font-size="14" font-weight="bold" lengthAdjust="spacing" textLength="183.3604" x="15.3198" y="159.4951">CI/CD Pipeline (GitHub)</text></g><!--cluster AWS Infrastructure--><g class="cluster" data-entity="AWS Infrastructure" data-source-line="14" data-uid="ent0009" id="cluster_AWS Infrastructure"><rect fill="none" height="844" rx="2.5" ry="2.5" style="stroke:#181818;stroke-width:1;" width="442" x="258" y="288.5"/><text fill="#000000" font-family="sans-serif" font-size="14" font-weight="bold" lengthAdjust="spacing" textLength="152.1064" x="402.9468" y="303.4951">AWS Infrastructure</text></g><!--cluster EC2--><g class="cluster" data-entity="EC2" data-source-line="18" data-uid="ent0012" id="cluster_EC2"><polygon fill="none" points="290,465.5,300,455.5,668,455.5,668,1090.5,658,1100.5,290,1100.5,290,465.5" style="stroke:#181818;stroke-width:1;"/><line style="stroke:#181818;stroke-width:1;" x1="658" x2="668" y1="465.5" y2="455.5"/><line style="stroke:#181818;stroke-width:1;" x1="290" x2="658" y1="465.5" y2="465.5"/><line style="stroke:#181818;stroke-width:1;" x1="658" x2="658" y1="465.5" y2="1100.5"/><text fill="#000000" font-family="sans-serif" font-size="14" font-weight="bold" lengthAdjust="spacing" textLength="177.5156" x="386.2422" y="481.4951">EC2 Instance (Ubuntu)</text></g><!--cluster Kubernetes (Minikube)--><g class="cluster" data-entity="Kubernetes .Minikube." data-source-line="19" data-uid="ent0013" id="cluster_Kubernetes .Minikube."><rect fill="none" height="557" rx="2.5" ry="2.5" style="stroke:#181818;stroke-width:1;" width="306" x="330" y="511.5"/><text fill="#000000" font-family="sans-serif" font-size="14" font-weight="bold" lengthAdjust="spacing" textLength="181.1797" x="392.4102" y="526.4951">Kubernetes (Minikube)</text></g><!--cluster Prod Namespace--><g class="cluster" data-entity="Prod Namespace" data-source-line="20" data-uid="ent0014" id="cluster_Prod Namespace"><rect fill="none" height="219" rx="2.5" ry="2.5" style="stroke:#181818;stroke-width:1;" width="258" x="354" y="825.5"/><text fill="#000000" font-family="sans-serif" font-size="14" font-weight="bold" lengthAdjust="spacing" textLength="132.5215" x="416.7393" y="840.4951">Prod Namespace</text></g><!--cluster Monitoring Namespace--><g class="cluster" data-entity="Monitoring Namespace" data-source-line="26" data-uid="ent0018" id="cluster_Monitoring Namespace"><rect fill="none" height="222" rx="2.5" ry="2.5" style="stroke:#181818;stroke-width:1;" width="198" x="384" y="554.5"/><text fill="#000000" font-family="sans-serif" font-size="14" font-weight="bold" lengthAdjust="spacing" textLength="182.0342" x="391.9829" y="569.4951">Monitoring Namespace</text></g><!--entity Repo--><g class="entity" data-entity="Repo" data-source-line="9" data-uid="ent0006" id="entity_Repo"><rect fill="#F1F1F1" height="46.2969" rx="2.5" ry="2.5" style="stroke:#181818;stroke-width:0.5;" width="168.0371" x="23" y="179.5"/><rect fill="#F1F1F1" height="10" style="stroke:#181818;stroke-width:0.5;" width="15" x="171.0371" y="184.5"/><rect fill="#F1F1F1" height="2" style="stroke:#181818;stroke-width:0.5;" width="4" x="169.0371" y="186.5"/><rect fill="#F1F1F1" height="2" style="stroke:#181818;stroke-width:0.5;" width="4" x="169.0371" y="190.5"/><text fill="#000000" font-family="sans-serif" font-size="14" lengthAdjust="spacing" textLength="128.0371" x="38" y="212.4951">GitHub Repository</text></g><!--entity GHA--><g class="entity" data-entity="GHA" data-source-line="10" data-uid="ent0007" id="entity_GHA"><rect fill="#F1F1F1" height="46.2969" rx="2.5" ry="2.5" style="stroke:#181818;stroke-width:0.5;" width="144.3506" x="35" y="323.5"/><rect fill="#F1F1F1" height="10" style="stroke:#181818;stroke-width:0.5;" width="15" x="159.3506" y="328.5"/><rect fill="#F1F1F1" height="2" style="stroke:#181818;stroke-width:0.5;" width="4" x="157.3506" y="330.5"/><rect fill="#F1F1F1" height="2" style="stroke:#181818;stroke-width:0.5;" width="4" x="157.3506" y="334.5"/><text fill="#000000" font-family="sans-serif" font-size="14" lengthAdjust="spacing" textLength="104.3506" x="50" y="356.4951">GitHub Actions</text></g><!--entity Hub--><g class="entity" data-entity="Hub" data-source-line="11" data-uid="ent0008" id="entity_Hub"><rect fill="#F1F1F1" height="46.2969" rx="2.5" ry="2.5" style="stroke:#181818;stroke-width:0.5;" width="122.2568" x="46" y="589.5"/><rect fill="#F1F1F1" height="10" style="stroke:#181818;stroke-width:0.5;" width="15" x="148.2568" y="594.5"/><rect fill="#F1F1F1" height="2" style="stroke:#181818;stroke-width:0.5;" width="4" x="146.2568" y="596.5"/><rect fill="#F1F1F1" height="2" style="stroke:#181818;stroke-width:0.5;" width="4" x="146.2568" y="600.5"/><text fill="#000000" font-family="sans-serif" font-size="14" lengthAdjust="spacing" textLength="82.2568" x="61" y="622.4951">Docker Hub</text></g><!--entity TF--><g class="entity" data-entity="TF" data-source-line="15" data-uid="ent0010" id="entity_TF"><rect fill="#F1F1F1" height="46.2969" rx="2.5" ry="2.5" style="stroke:#181818;stroke-width:0.5;" width="110.1436" x="473" y="323.5"/><rect fill="#F1F1F1" height="10" style="stroke:#181818;stroke-width:0.5;" width="15" x="563.1436" y="328.5"/><rect fill="#F1F1F1" height="2" style="stroke:#181818;stroke-width:0.5;" width="4" x="561.1436" y="330.5"/><rect fill="#F1F1F1" height="2" style="stroke:#181818;stroke-width:0.5;" width="4" x="561.1436" y="334.5"/><text fill="#000000" font-family="sans-serif" font-size="14" lengthAdjust="spacing" textLength="70.1436" x="488" y="356.4951">Terraform</text></g><!--entity Ansible--><g class="entity" data-entity="Ansible" data-source-line="16" data-uid="ent0011" id="entity_Ansible"><rect fill="#F1F1F1" height="46.2969" rx="2.5" ry="2.5" style="stroke:#181818;stroke-width:0.5;" width="91.0234" x="299.5" y="323.5"/><rect fill="#F1F1F1" height="10" style="stroke:#181818;stroke-width:0.5;" width="15" x="370.5234" y="328.5"/><rect fill="#F1F1F1" height="2" style="stroke:#181818;stroke-width:0.5;" width="4" x="368.5234" y="330.5"/><rect fill="#F1F1F1" height="2" style="stroke:#181818;stroke-width:0.5;" width="4" x="368.5234" y="334.5"/><text fill="#000000" font-family="sans-serif" font-size="14" lengthAdjust="spacing" textLength="51.0234" x="314.5" y="356.4951">Ansible</text></g><!--entity App--><g class="entity" data-entity="App" data-source-line="21" data-uid="ent0015" id="entity_App"><rect fill="#F1F1F1" height="46.2969" rx="2.5" ry="2.5" style="stroke:#181818;stroke-width:0.5;" width="107.7236" x="427" y="860.5"/><rect fill="#F1F1F1" height="10" style="stroke:#181818;stroke-width:0.5;" width="15" x="514.7236" y="865.5"/><rect fill="#F1F1F1" height="2" style="stroke:#181818;stroke-width:0.5;" width="4" x="512.7236" y="867.5"/><rect fill="#F1F1F1" height="2" style="stroke:#181818;stroke-width:0.5;" width="4" x="512.7236" y="871.5"/><text fill="#000000" font-family="sans-serif" font-size="14" lengthAdjust="spacing" textLength="67.7236" x="442" y="893.4951">Flask App</text></g><!--entity DB--><g class="entity" data-entity="DB" data-source-line="22" data-uid="ent0016" id="entity_DB"><path d="M371,993.5 C371,983.5 405.0352,983.5 405.0352,983.5 C405.0352,983.5 439.0703,983.5 439.0703,993.5 L439.0703,1018.7969 C439.0703,1028.7969 405.0352,1028.7969 405.0352,1028.7969 C405.0352,1028.7969 371,1028.7969 371,1018.7969 L371,993.5" fill="#F1F1F1" style="stroke:#181818;stroke-width:0.5;"/><path d="M371,993.5 C371,1003.5 405.0352,1003.5 405.0352,1003.5 C405.0352,1003.5 439.0703,1003.5 439.0703,993.5" fill="none" style="stroke:#181818;stroke-width:0.5;"/><text fill="#000000" font-family="sans-serif" font-size="14" lengthAdjust="spacing" textLength="48.0703" x="381" y="1020.4951">MySQL</text></g><!--entity Cache--><g class="entity" data-entity="Cache" data-source-line="23" data-uid="ent0017" id="entity_Cache"><path d="M490,993.5 C490,983.5 519.2056,983.5 519.2056,983.5 C519.2056,983.5 548.4111,983.5 548.4111,993.5 L548.4111,1018.7969 C548.4111,1028.7969 519.2056,1028.7969 519.2056,1028.7969 C519.2056,1028.7969 490,1028.7969 490,1018.7969 L490,993.5" fill="#F1F1F1" style="stroke:#181818;stroke-width:0.5;"/><path d="M490,993.5 C490,1003.5 519.2056,1003.5 519.2056,1003.5 C519.2056,1003.5 548.4111,1003.5 548.4111,993.5" fill="none" style="stroke:#181818;stroke-width:0.5;"/><text fill="#000000" font-family="sans-serif" font-size="14" lengthAdjust="spacing" textLength="38.4111" x="500" y="1020.4951">Redis</text></g><!--entity Prom--><g class="entity" data-entity="Prom" data-source-line="27" data-uid="ent0019" id="entity_Prom"><rect fill="#F1F1F1" height="46.2969" rx="2.5" ry="2.5" style="stroke:#181818;stroke-width:0.5;" width="124.1572" x="419" y="714.5"/><rect fill="#F1F1F1" height="10" style="stroke:#181818;stroke-width:0.5;" width="15" x="523.1572" y="719.5"/><rect fill="#F1F1F1" height="2" style="stroke:#181818;stroke-width:0.5;" width="4" x="521.1572" y="721.5"/><rect fill="#F1F1F1" height="2" style="stroke:#181818;stroke-width:0.5;" width="4" x="521.1572" y="725.5"/><text fill="#000000" font-family="sans-serif" font-size="14" lengthAdjust="spacing" textLength="84.1572" x="434" y="747.4951">Prometheus</text></g><!--entity Grafana--><g class="entity" data-entity="Grafana" data-source-line="28" data-uid="ent0020" id="entity_Grafana"><rect fill="#F1F1F1" height="46.2969" rx="2.5" ry="2.5" style="stroke:#181818;stroke-width:0.5;" width="96.1436" x="419" y="589.5"/><rect fill="#F1F1F1" height="10" style="stroke:#181818;stroke-width:0.5;" width="15" x="495.1436" y="594.5"/><rect fill="#F1F1F1" height="2" style="stroke:#181818;stroke-width:0.5;" width="4" x="493.1436" y="596.5"/><rect fill="#F1F1F1" height="2" style="stroke:#181818;stroke-width:0.5;" width="4" x="493.1436" y="600.5"/><text fill="#000000" font-family="sans-serif" font-size="14" lengthAdjust="spacing" textLength="56.1436" x="434" y="622.4951">Grafana</text></g><!--entity Developer--><g class="entity" data-entity="Developer" data-source-line="4" data-uid="ent0002" id="entity_Developer"><ellipse cx="107.0015" cy="14" fill="#F1F1F1" rx="8" ry="8" style="stroke:#181818;stroke-width:0.5;"/><path d="M107.0015,22 L107.0015,49 M94.0015,30 L120.0015,30 M107.0015,49 L94.0015,64 M107.0015,49 L120.0015,64" fill="none" style="stroke:#181818;stroke-width:0.5;"/><text fill="#000000" font-family="sans-serif" font-size="14" lengthAdjust="spacing" textLength="72.0029" x="71" y="78.4951">Developer</text></g><!--entity User--><g class="entity" data-entity="User" data-source-line="5" data-uid="ent0003" id="entity_User"><ellipse cx="747.9829" cy="317" fill="#F1F1F1" rx="8" ry="8" style="stroke:#181818;stroke-width:0.5;"/><path d="M747.9829,325 L747.9829,352 M734.9829,333 L760.9829,333 M747.9829,352 L734.9829,367 M747.9829,352 L760.9829,367" fill="none" style="stroke:#181818;stroke-width:0.5;"/><text fill="#000000" font-family="sans-serif" font-size="14" lengthAdjust="spacing" textLength="62.9658" x="716.5" y="381.4951">End User</text></g><!--entity Admin--><g class="entity" data-entity="Admin" data-source-line="6" data-uid="ent0004" id="entity_Admin"><ellipse cx="873.9321" cy="317" fill="#F1F1F1" rx="8" ry="8" style="stroke:#181818;stroke-width:0.5;"/><path d="M873.9321,325 L873.9321,352 M860.9321,333 L886.9321,333 M873.9321,352 L860.9321,367 M873.9321,352 L886.9321,367" fill="none" style="stroke:#181818;stroke-width:0.5;"/><text fill="#000000" font-family="sans-serif" font-size="14" lengthAdjust="spacing" textLength="44.8643" x="851.5" y="381.4951">Admin</text></g><!--link Developer to Repo--><g class="link" data-entity-1="Developer" data-entity-2="Repo" data-source-line="35" data-uid="lnk21" id="link_Developer_Repo"><path d="M107,81.71 C107,111.99 107,147.74 107,173.11" fill="none" id="Developer-to-Repo" style="stroke:#181818;stroke-width:1;"/><polygon fill="#181818" points="107,179.11,111,170.11,107,174.11,103,170.11,107,179.11" style="stroke:#181818;stroke-width:1;"/><text fill="#000000" font-family="sans-serif" font-size="13" lengthAdjust="spacing" textLength="68.5039" x="108" y="124.5669">Push Code</text></g><!--link Repo to GHA--><g class="link" data-entity-1="Repo" data-entity-2="GHA" data-source-line="36" data-uid="lnk22" id="link_Repo_GHA"><path d="M107,225.69 C107,252.36 107,290.86 107,317.47" fill="none" id="Repo-to-GHA" style="stroke:#181818;stroke-width:1;"/><polygon fill="#181818" points="107,323.47,111,314.47,107,318.47,103,314.47,107,323.47" style="stroke:#181818;stroke-width:1;"/><text fill="#000000" font-family="sans-serif" font-size="13" lengthAdjust="spacing" textLength="46.7441" x="108" y="268.5669">Trigger</text></g><!--link GHA to Hub--><g class="link" data-entity-1="GHA" data-entity-2="Hub" data-source-line="37" data-uid="lnk23" id="link_GHA_Hub"><path d="M84.83,369.54 C74.2,381.69 62.58,397.69 57,414.5 C36.32,476.79 69.1043,547.3556 90.2043,584.1356" fill="none" id="GHA-to-Hub" style="stroke:#181818;stroke-width:1;"/><polygon fill="#181818" points="93.19,589.34,92.1811,579.543,90.7019,585.003,85.2419,583.5238,93.19,589.34" style="stroke:#181818;stroke-width:1;"/><text fill="#000000" font-family="sans-serif" font-size="13" lengthAdjust="spacing" textLength="126.9722" x="58" y="427.5669">Build &amp; Push Image</text></g><!--link GHA to EC2--><g class="link" data-entity-1="GHA" data-entity-2="EC2" data-source-line="38" data-uid="lnk24" id="link_GHA_EC2"><path d="M137.86,369.63 C153.97,381.92 173.51,398.03 189,414.5 C222.745,450.37 249.6775,498.6525 268.3288,538.44 C277.6544,558.3338 282.76,570.5021 287.7614,583.5349" fill="none" id="GHA-to-EC2" style="stroke:#181818;stroke-width:1;"/><polygon fill="#181818" points="289.9111,589.1366,290.421,579.3009,288.1197,584.4685,282.9521,582.1671,289.9111,589.1366" style="stroke:#181818;stroke-width:1;"/><text fill="#000000" font-family="sans-serif" font-size="13" lengthAdjust="spacing" textLength="75.9307" x="203" y="427.5669">SSH Deploy</text></g><!--link TF to EC2--><g class="link" data-entity-1="TF" data-entity-2="EC2" data-source-line="41" data-uid="lnk25" id="link_TF_EC2"><path d="M522.74,369.75 C516.82,389.45 505.16,417.23 484,431.5 C454.01,451.73 433.64,420.27 403,439.5 C398.3331,442.4294 393.843,445.6493 389.5257,449.113 C387.367,450.8449 385.2515,452.6377 383.1786,454.4855 C382.9195,454.7165 387.1149,450.9279 386.8571,451.1606" fill="none" id="TF-to-EC2" style="stroke:#181818;stroke-width:1;stroke-dasharray:7,7;"/><polygon fill="#181818" points="382.4033,455.1811,391.7643,452.1196,386.1148,451.8307,386.4037,446.1812,382.4033,455.1811" style="stroke:#181818;stroke-width:1;"/><text fill="#000000" font-family="sans-serif" font-size="13" lengthAdjust="spacing" textLength="59.0205" x="502" y="427.5669">Provision</text></g><!--link Ansible to EC2--><g class="link" data-entity-1="Ansible" data-entity-2="EC2" data-source-line="42" data-uid="lnk26" id="link_Ansible_EC2"><path d="M341.07,369.55 C338.29,385.165 334.27,407.7475 329.7886,432.9225 C328.6682,439.2162 327.5191,445.672 326.3532,452.2215 C326.2075,453.0402 327.113,447.9532 326.9668,448.7746" fill="none" id="Ansible-to-EC2" style="stroke:#181818;stroke-width:1;stroke-dasharray:7,7;"/><polygon fill="#181818" points="325.9152,454.6818,331.4306,446.5221,326.7915,449.7592,323.5544,445.1201,325.9152,454.6818" style="stroke:#181818;stroke-width:1;"/><text fill="#000000" font-family="sans-serif" font-size="13" lengthAdjust="spacing" textLength="141.356" x="334" y="427.5669">Configure Docker/K8s</text></g><!--link EC2 to Hub--><g class="link" data-entity-1="EC2" data-entity-2="Hub" data-source-line="45" data-uid="lnk27" id="link_EC2_Hub"><path d="M289.9017,612.5 C289.8055,612.5 289.7086,612.5 289.6109,612.5 C289.4155,612.5 289.217,612.5 289.0155,612.5 C288.6124,612.5 288.1973,612.5 287.7704,612.5 C286.0628,612.5 284.1665,612.5 282.1009,612.5 C273.8388,612.5 262.8688,612.5 250.435,612.5 C225.5675,612.5 200.845,612.5 174.22,612.5" fill="none" id="EC2-to-Hub" style="stroke:#181818;stroke-width:1;stroke-dasharray:7,7;"/><polygon fill="#181818" points="168.22,612.5,177.22,616.5,173.22,612.5,177.22,608.5,168.22,612.5" style="stroke:#181818;stroke-width:1;"/><text fill="#000000" font-family="sans-serif" font-size="13" lengthAdjust="spacing" textLength="68.1484" x="198.82" y="605.5669">Pull Image</text></g><!--link App to DB--><g class="link" data-entity-1="App" data-entity-2="DB" data-source-line="46" data-uid="lnk28" id="link_App_DB"><path d="M444.07,906.52 C433.42,914.63 422.84,924.76 416,936.5 C407.75,950.65 405.4177,963.1055 404.8077,977.2955" fill="none" id="App-to-DB" style="stroke:#181818;stroke-width:1;"/><polygon fill="#181818" points="404.55,983.29,408.9328,974.4701,404.7647,978.2946,400.9402,974.1265,404.55,983.29" style="stroke:#181818;stroke-width:1;"/><text fill="#000000" font-family="sans-serif" font-size="13" lengthAdjust="spacing" textLength="72.5347" x="417" y="949.5669">Read/Write</text></g><!--link App to Cache--><g class="link" data-entity-1="App" data-entity-2="Cache" data-source-line="47" data-uid="lnk29" id="link_App_Cache"><path d="M487.97,906.6 C494.87,928.48 503.5547,956.038 510.3947,977.718" fill="none" id="App-to-Cache" style="stroke:#181818;stroke-width:1;"/><polygon fill="#181818" points="512.2,983.44,513.3067,973.6535,510.6956,978.6717,505.6774,976.0606,512.2,983.44" style="stroke:#181818;stroke-width:1;"/><text fill="#000000" font-family="sans-serif" font-size="13" lengthAdjust="spacing" textLength="75.6006" x="504" y="949.5669">Cache Data</text></g><!--link Prom to App--><g class="link" data-entity-1="Prom" data-entity-2="App" data-source-line="50" data-uid="lnk30" id="link_Prom_App"><path d="M481,760.68 C481,787.67 481,826.95 481,854.05" fill="none" id="Prom-to-App" style="stroke:#181818;stroke-width:1;"/><polygon fill="#181818" points="481,860.05,485,851.05,481,855.05,477,851.05,481,860.05" style="stroke:#181818;stroke-width:1;"/><text fill="#000000" font-family="sans-serif" font-size="13" lengthAdjust="spacing" textLength="96.2813" x="482" y="805.5669">Scrape Metrics</text></g><!--link Grafana to Prom--><g class="link" data-entity-1="Grafana" data-entity-2="Prom" data-source-line="51" data-uid="lnk31" id="link_Grafana_Prom"><path d="M469.54,635.77 C472.07,658.07 475.2715,686.1985 477.8015,708.4285" fill="none" id="Grafana-to-Prom" style="stroke:#181818;stroke-width:1;"/><polygon fill="#181818" points="478.48,714.39,481.4366,704.9954,477.9146,709.4221,473.4879,705.9,478.48,714.39" style="stroke:#181818;stroke-width:1;"/><text fill="#000000" font-family="sans-serif" font-size="13" lengthAdjust="spacing" textLength="90.8286" x="476" y="680.5669">Query Metrics</text></g><!--link User to EC2--><g class="link" data-entity-1="User" data-entity-2="EC2" data-source-line="54" data-uid="lnk32" id="link_User_EC2"><path d="M724.5,384.63 C711.16,402.22 692.77,421.54 671,431.5 C643.91,443.9 428.76,424.54 403,439.5 C398.2356,442.2681 393.66,445.3467 389.268,448.687 C387.0721,450.3571 384.922,452.0927 382.8171,453.8877 C382.2909,454.3364 386.2805,450.8351 385.76,451.2911" fill="none" id="User-to-EC2" style="stroke:#181818;stroke-width:1;"/><polygon fill="#181818" points="381.2469,455.2449,390.6524,452.3229,385.0078,451.9501,385.3806,446.3055,381.2469,455.2449" style="stroke:#181818;stroke-width:1;"/><text fill="#000000" font-family="sans-serif" font-size="13" lengthAdjust="spacing" textLength="122.0337" x="698" y="427.5669">Access App (HTTP)</text></g><!--link Admin to EC2--><g class="link" data-entity-1="Admin" data-entity-2="EC2" data-source-line="55" data-uid="lnk33" id="link_Admin_EC2"><path d="M863.73,384.66 C856.88,402.04 845.94,421.14 829,431.5 C808.81,443.85 423.53,427.72 403,439.5 C398.22,442.2413 393.6307,445.2963 389.2268,448.616 C387.0249,450.2759 384.8693,452.002 382.7594,453.7881 C382.2319,454.2347 386.2339,450.7468 385.7121,451.2007" fill="none" id="Admin-to-EC2" style="stroke:#181818;stroke-width:1;"/><polygon fill="#181818" points="381.1855,455.1389,390.6009,452.2494,384.9577,451.8571,385.35,446.2139,381.1855,455.1389" style="stroke:#181818;stroke-width:1;"/><text fill="#000000" font-family="sans-serif" font-size="13" lengthAdjust="spacing" textLength="141.0894" x="846" y="427.5669">SSH Tunnel (Grafana)</text></g><!--SRC=[ZLHBRzim3BxhLn0vRCcX3T3JaCC0DsaUw3AaYOkU5Pb9XCYIeKU7OEX_7oLvNfe-C1ziaVn4VXG_sHsbRhZbDGXJDqQZzXj_KWYXLZVCTT66YoFVOuvP59xhlKB6kF36mWIVKPa6RMltxdG5Zmvj3xXBYpPGLBNKZBNPe3TU3CSJMCa6bTG8_Pdqyx0TzE0t0tewJj3B4LXZOvoaLAUKEfeV80lXfT4kmMRpuX8rCUA85WYP4FHbBsV4YgSDBFJESkTj43vOV8TJYTRodR5rIb5EB-E5TdAhC4NRTOAabpOLrRaRtr0THySfgFt7RT0-3DA66CaLuzCHkmzRj1ezEkWlfPP7ihlpUeDUMLF1JrwZ8nTUmYxeJXLtHoYQ9XDkcZVWYdk-vOuIBq-RXny9Dxdz1BR6IkOHZBauu2laoolhVVvBe-EmfTx_TnVKSet-W27NZUPdy1bDa6kUPPBN7x3CgvSeaw-GXJjLvXVhn0zNLz-J8c44g-0ECAOHi-I84H8X1Kehztkw3z6AtYZL4Tm6gIhuahSjQkgz0qGTZ62pcTCjQvGvnUglbPbfb5EulluBfwwVfIFzirPtPx6nqJkvZ_lo7HZUVtCnwPgq9-isMuJ6BPdUAYZLqY9P95gJM_AlaLV39olzFt-QSwoIlXDIGinzDiUKFaubmUCswavOtY0iqLif76lda009EOA7WFRK0IXZ8GGwn-A_vUoOiZTbxS_BSZLWwOzpSP1bq1eL_MrodS4V]--></g></svg>